<svg xmlns="http://www.w3.org/2000/svg" xmlns:xlink="http://www.w3.org/1999/xlink" viewBox="0 0 128 128">
  <defs>
    <linearGradient id="a">
      <stop offset="0" stop-color="#59f"/>
      <stop offset="1" stop-color="#04a"/>
    </linearGradient>
    <linearGradient id="b" x1="199.18" x2="464.2" y1="332.55" y2="332.55" gradientTransform="matrix(.11289 0 0 .11288 27.561 25.037)" gradientUnits="userSpaceOnUse">
      <stop offset="0" stop-color="#59f"/>
      <stop offset="1" stop-color="#04a"/>
    </linearGradient>
    <linearGradient xlink:href="#a" id="c" x1="481.69" x2="181.69" y1="315.04" y2="315.04" gradientTransform="matrix(.02987 0 0 .02987 42.6442 38.737)" gradientUnits="userSpaceOnUse"/>
    <linearGradient xlink:href="#b" id="d" x1="199.18" x2="464.2" y1="332.55" y2="332.55" gradientTransform="matrix(.02987 0 0 .02987 42.6442 38.737)" gradientUnits="userSpaceOnUse"/>
    <linearGradient xlink:href="#b" id="e" x1="7.615" x2="33.908" y1="-18.4547" y2="-18.4547" gradientTransform="matrix(.1652 0 0 .13251 49.1216 50.5918)" gradientUnits="userSpaceOnUse"/>
  </defs>
  <path fill="url(#c)" d="M52.5514 43.666a4.4804 4.48 0 0 0-4.4804 4.48 4.4804 4.48 0 0 0 4.4804 4.48 4.4804 4.48 0 0 0 4.4803-4.48 4.4804 4.48 0 0 0-4.4803-4.48Zm0 1.0453a3.435 3.4346 0 0 1 3.435 3.4346 3.435 3.4346 0 0 1-3.435 3.4346 3.435 3.4346 0 0 1-3.435-3.4346 3.435 3.4346 0 0 1 3.435-3.4346z" transform="matrix(14.28455 0 0 14.28455 -686.6725 -623.749)"/>
  <path fill="url(#d)" d="M52.5429 44.7114a3.958 3.9577 0 0 0-3.9493 3.9577 3.958 3.9577 0 0 0 3.958 3.9576 3.958 3.9577 0 0 0 3.958-3.9576 3.958 3.9577 0 0 0-3.9291-3.9577 3.435 3.4346 0 0 1 3.406 3.4346 3.435 3.4346 0 0 1-3.4349 3.4346 3.435 3.4346 0 0 1-3.435-3.4346 3.435 3.4346 0 0 1 3.4266-3.4346z" transform="matrix(14.28455 0 0 14.28455 -686.6725 -623.749)"/>
  <path fill="url(#e)" d="M50.9779 48.4422q.1598 0 .2417.2104.164.3944.2336.3944.0533 0 .1106-.0658 1.1515-1.479 2.1308-2.3928.254-.2367.8072-.2367.1312 0 .1762.0197.0451.0197.0451.0493 0 .046-.1352.1808-1.5817 1.5251-2.934 3.2212-.0942.1183-.3851.1183-.295 0-.3483-.0197-.1393-.0493-.3278-.5029-.213-.5029-.213-.631 0-.1381.2867-.2663.1762-.079.3115-.079z" font-size="50.8" style="line-height:1.25;white-space:pre;shape-inside:url(#rect1727)" transform="matrix(14.28455 0 0 14.28455 -686.6725 -623.749)"/>
</svg>